<svg width="16" height="16" xmlns="http://www.w3.org/2000/svg">

 <g>
  <title>background</title>
  <rect fill="none" id="canvas_background" height="402" width="582" y="-1" x="-1"/>
 </g>
 <g>
  <title>Layer 1</title>
  <path fill="#7c7d99" id="svg_1" d="m15,6l-7,0l0,-3c0,-0.484 -0.375,-1 -1,-1c-0.461,0 -0.695,0.287 -1,0.54l-5.375,4.46c-0.383,0.313 -0.625,0.555 -0.625,1s0.242,0.688 0.625,1l5.375,4.46c0.305,0.253 0.539,0.54 1,0.54c0.625,0 1,-0.516 1,-1l0,-3l7,0c0.55,0 1,-0.45 1,-1l0,-2c0,-0.55 -0.45,-1 -1,-1z"/>
 </g>
</svg>